<svg width="239" height="231" viewBox="0 0 239 231" fill="none" xmlns="http://www.w3.org/2000/svg">
<path d="M10.8054 175.644C40.2129 228.252 113.424 242.465 165.574 220.568C223.382 196.336 246.191 131.185 224.247 73.1778C213.236 44.09 184.154 16.3337 155.612 4.65203C137.207 -2.86663 103.485 -3.24228 93.1275 18.5652C81.3768 43.3078 118.206 61.398 136.236 65.1658C167.816 71.7705 201.316 66.7244 232.504 60.6047C242.777 58.5918 240.071 49.0996 229.944 51.0928C198.005 57.3303 128.97 70.8875 110.587 32.0523C103.749 17.542 117.803 9.272 130.847 10.5419C147.288 12.1567 162.11 23.4627 174.198 34.0258C193.343 50.7564 207.397 70.0268 212.763 95.2853C223.413 145.236 203.372 197.149 153.27 214.639C108.77 230.189 50.1443 212.057 26.5649 169.359C3.08004 126.891 24.1724 67.8037 63.9787 43.6162C73.5874 37.816 59.3914 34.0567 53.4214 37.645C9.4979 64.3332 -15.6477 128.357 10.8054 175.644Z" fill="#C30045"/>
<path fill-rule="evenodd" clip-rule="evenodd" d="M153.638 111.103C153.752 106.364 149.982 102.347 145.225 102.43C139.917 102.511 136.68 105.46 136.572 110.762C136.46 116.107 139.694 119.093 144.894 119.481C149.521 119.812 153.545 115.748 153.638 111.103ZM93.8634 119.499C98.597 119.553 102.58 115.735 102.424 110.973C102.243 105.649 99.3092 102.512 94.0058 102.428C88.6325 102.374 85.7529 105.649 85.3774 110.827C85.0304 115.401 89.2333 119.452 93.8634 119.499Z" fill="#C30045"/>
<path fill-rule="evenodd" clip-rule="evenodd" d="M124.023 187.785C121.203 187.785 119.243 187.57 118.386 187.469C71.8543 187.215 44.5331 140.029 43.3929 138C41.9409 135.426 42.7751 132.124 45.2634 130.615C47.7198 129.085 50.9701 129.95 52.4365 132.524C52.6732 132.965 78.0691 176.665 118.752 176.665L119.546 176.728C121.203 176.999 160.466 182.318 186.43 130.961C187.784 128.294 190.936 127.271 193.523 128.643C196.074 130.045 197.065 133.314 195.725 135.975C172.09 182.72 137.827 187.785 124.023 187.785Z" fill="#C30045"/>
</svg>
